<svg id="Capa_1" enable-background="new 0 0 512 512" height="512" viewBox="0 0 512 512" width="512" xmlns="http://www.w3.org/2000/svg"><g><g><path d="m386.31 346.05c-4.143 0-7.5 3.357-7.5 7.5v110.54c0 18.146-14.763 32.91-32.909 32.91h-179.801c-18.146 0-32.909-14.764-32.909-32.91v-196.55c0-10.605 2.23-20.86 6.631-30.481l15.35-33.58c1.722-3.768.063-8.217-3.703-9.939-3.769-1.722-8.218-.063-9.939 3.703l-15.349 33.579c-5.302 11.591-7.989 23.945-7.989 36.719v196.55c0 26.418 21.492 47.91 47.909 47.91h179.799c26.417 0 47.909-21.492 47.909-47.91v-110.541c.001-4.143-3.357-7.5-7.499-7.5z"/><path d="m337.823 301.886c13.047 0 23.662-10.615 23.662-23.662v-10.688c0-8.099-1.707-15.933-5.072-23.281l-44.379-97.092c-3.846-8.396-12.291-13.821-21.517-13.821h-8.253c-13.048 0-23.663 10.615-23.663 23.662v121.22c0 13.047 10.615 23.662 23.663 23.662zm-64.221-23.662v-121.22c0-4.776 3.887-8.662 8.663-8.662h8.253c3.376 0 6.469 1.989 7.876 5.062l44.379 97.092c2.464 5.379 3.713 11.112 3.713 17.04v10.688c0 4.776-3.886 8.662-8.662 8.662h-55.559c-4.777 0-8.663-3.886-8.663-8.662z"/><path d="m385.821 230.822-56.661-123.936v-18.573c0-14.45-11.122-26.345-25.254-27.59v-53.223c0-4.143-3.357-7.5-7.5-7.5h-80.812c-4.143 0-7.5 3.357-7.5 7.5v53.224c-14.132 1.245-25.254 13.139-25.254 27.59v18.573l-26.761 58.536c-1.722 3.767-.064 8.217 3.703 9.939 1.011.462 2.07.681 3.113.681 2.845 0 5.565-1.627 6.826-4.384l25.438-55.642h121.682l55.339 121.043c4.399 9.62 6.63 19.875 6.63 30.48v51.01c0 4.143 3.357 7.5 7.5 7.5s7.5-3.357 7.5-7.5v-51.01c0-12.773-2.688-25.128-7.989-36.718zm-96.915-215.822v45.609h-65.812v-45.609zm25.254 86.017h-116.32v-12.704c0-7.005 5.698-12.704 12.703-12.704h90.914c7.005 0 12.703 5.699 12.703 12.704z"/><path d="m321.66 432.35h-20.203c-4.143 0-7.5 3.357-7.5 7.5s3.357 7.5 7.5 7.5h20.203c4.143 0 7.5-3.357 7.5-7.5s-3.357-7.5-7.5-7.5z"/><path d="m190.34 432.35c-4.143 0-7.5 3.357-7.5 7.5s3.357 7.5 7.5 7.5h20.203c4.143 0 7.5-3.357 7.5-7.5s-3.357-7.5-7.5-7.5z"/><path d="m329.16 359.036c0-4.143-3.357-7.5-7.5-7.5h-131.32c-4.143 0-7.5 3.357-7.5 7.5v32.325c0 4.143 3.357 7.5 7.5 7.5h131.32c4.143 0 7.5-3.357 7.5-7.5zm-15 24.825h-116.32v-17.325h116.32z"/><path d="m217.49 319.21h-29.17c-20.849 0-37.811 16.961-37.811 37.81v84.851c0 20.843 16.962 37.8 37.811 37.8h135.36c20.849 0 37.811-16.957 37.811-37.8v-84.851c0-20.849-16.962-37.81-37.811-37.81h-71.19c-4.143 0-7.5 3.357-7.5 7.5s3.357 7.5 7.5 7.5h71.189c12.578 0 22.811 10.232 22.811 22.81v84.851c0 12.572-10.232 22.8-22.811 22.8h-135.359c-12.578 0-22.811-10.228-22.811-22.8v-84.851c0-12.577 10.232-22.81 22.811-22.81h29.17c4.143 0 7.5-3.357 7.5-7.5s-3.357-7.5-7.5-7.5z"/></g></g></svg>